solid airfoil
facet normal 0.00034 0.0024100000000000232 -0.0
  outer loop
    vertex 1.0 0.0 0.0
    vertex 0.99759 0.00034 0.0
    vertex 1.0 0.0 1.0
  endloop
endfacet
facet normal -0.00034 -0.0024100000000000232 0.0
  outer loop
    vertex 1.0 0.0 1.0
    vertex 0.99759 0.00034 1.0
    vertex 0.99759 0.00034 0.0
  endloop
endfacet
facet normal 0.00099 0.007199999999999984 -0.0
  outer loop
    vertex 0.99759 0.00034 0.0
    vertex 0.99039 0.00133 0.0
    vertex 0.99759 0.00034 1.0
  endloop
endfacet
facet normal -0.00099 -0.007199999999999984 0.0
  outer loop
    vertex 0.99759 0.00034 1.0
    vertex 0.99039 0.00133 1.0
    vertex 0.99039 0.00133 0.0
  endloop
endfacet
facet normal 0.00169 0.011920000000000042 -0.0
  outer loop
    vertex 0.99039 0.00133 0.0
    vertex 0.97847 0.00302 0.0
    vertex 0.99039 0.00133 1.0
  endloop
endfacet
facet normal -0.00169 -0.011920000000000042 0.0
  outer loop
    vertex 0.99039 0.00133 1.0
    vertex 0.97847 0.00302 1.0
    vertex 0.97847 0.00302 0.0
  endloop
endfacet
facet normal 0.0026 0.016529999999999934 -0.0
  outer loop
    vertex 0.97847 0.00302 0.0
    vertex 0.96194 0.00562 0.0
    vertex 0.97847 0.00302 1.0
  endloop
endfacet
facet normal -0.0026 -0.016529999999999934 0.0
  outer loop
    vertex 0.97847 0.00302 1.0
    vertex 0.96194 0.00562 1.0
    vertex 0.96194 0.00562 0.0
  endloop
endfacet
facet normal 0.0030799999999999994 0.02098 -0.0
  outer loop
    vertex 0.96194 0.00562 0.0
    vertex 0.94096 0.0087 0.0
    vertex 0.96194 0.00562 1.0
  endloop
endfacet
facet normal -0.0030799999999999994 -0.02098 0.0
  outer loop
    vertex 0.96194 0.00562 1.0
    vertex 0.94096 0.0087 1.0
    vertex 0.94096 0.0087 0.0
  endloop
endfacet
facet normal 0.00366 0.025229999999999975 -0.0
  outer loop
    vertex 0.94096 0.0087 0.0
    vertex 0.91573 0.01236 0.0
    vertex 0.94096 0.0087 1.0
  endloop
endfacet
facet normal -0.00366 -0.025229999999999975 0.0
  outer loop
    vertex 0.94096 0.0087 1.0
    vertex 0.91573 0.01236 1.0
    vertex 0.91573 0.01236 0.0
  endloop
endfacet
facet normal 0.0040500000000000015 0.029220000000000024 -0.0
  outer loop
    vertex 0.91573 0.01236 0.0
    vertex 0.88651 0.01641 0.0
    vertex 0.91573 0.01236 1.0
  endloop
endfacet
facet normal -0.0040500000000000015 -0.029220000000000024 0.0
  outer loop
    vertex 0.91573 0.01236 1.0
    vertex 0.88651 0.01641 1.0
    vertex 0.88651 0.01641 0.0
  endloop
endfacet
facet normal 0.004529999999999999 0.03295999999999999 -0.0
  outer loop
    vertex 0.88651 0.01641 0.0
    vertex 0.85355 0.02094 0.0
    vertex 0.88651 0.01641 1.0
  endloop
endfacet
facet normal -0.004529999999999999 -0.03295999999999999 0.0
  outer loop
    vertex 0.88651 0.01641 1.0
    vertex 0.85355 0.02094 1.0
    vertex 0.85355 0.02094 0.0
  endloop
endfacet
facet normal 0.004869999999999999 0.03634999999999999 -0.0
  outer loop
    vertex 0.85355 0.02094 0.0
    vertex 0.8172 0.02581 0.0
    vertex 0.85355 0.02094 1.0
  endloop
endfacet
facet normal -0.004869999999999999 -0.03634999999999999 0.0
  outer loop
    vertex 0.85355 0.02094 1.0
    vertex 0.8172 0.02581 1.0
    vertex 0.8172 0.02581 0.0
  endloop
endfacet
facet normal 0.0050100000000000006 0.039410000000000056 -0.0
  outer loop
    vertex 0.8172 0.02581 0.0
    vertex 0.77779 0.03082 0.0
    vertex 0.8172 0.02581 1.0
  endloop
endfacet
facet normal -0.0050100000000000006 -0.039410000000000056 0.0
  outer loop
    vertex 0.8172 0.02581 1.0
    vertex 0.77779 0.03082 1.0
    vertex 0.77779 0.03082 0.0
  endloop
endfacet
facet normal 0.005040000000000003 0.04208999999999996 -0.0
  outer loop
    vertex 0.77779 0.03082 0.0
    vertex 0.7357 0.03586 0.0
    vertex 0.77779 0.03082 1.0
  endloop
endfacet
facet normal -0.005040000000000003 -0.04208999999999996 0.0
  outer loop
    vertex 0.77779 0.03082 1.0
    vertex 0.7357 0.03586 1.0
    vertex 0.7357 0.03586 0.0
  endloop
endfacet
facet normal 0.005009999999999994 0.044360000000000066 -0.0
  outer loop
    vertex 0.7357 0.03586 0.0
    vertex 0.69134 0.04087 0.0
    vertex 0.7357 0.03586 1.0
  endloop
endfacet
facet normal -0.005009999999999994 -0.044360000000000066 0.0
  outer loop
    vertex 0.7357 0.03586 1.0
    vertex 0.69134 0.04087 1.0
    vertex 0.69134 0.04087 0.0
  endloop
endfacet
facet normal 0.004870000000000006 0.04619999999999991 -0.0
  outer loop
    vertex 0.69134 0.04087 0.0
    vertex 0.64514 0.04574 0.0
    vertex 0.69134 0.04087 1.0
  endloop
endfacet
facet normal -0.004870000000000006 -0.04619999999999991 0.0
  outer loop
    vertex 0.69134 0.04087 1.0
    vertex 0.64514 0.04574 1.0
    vertex 0.64514 0.04574 0.0
  endloop
endfacet
facet normal 0.0044299999999999964 0.04759000000000002 -0.0
  outer loop
    vertex 0.64514 0.04574 0.0
    vertex 0.59755 0.05017 0.0
    vertex 0.64514 0.04574 1.0
  endloop
endfacet
facet normal -0.0044299999999999964 -0.04759000000000002 0.0
  outer loop
    vertex 0.64514 0.04574 1.0
    vertex 0.59755 0.05017 1.0
    vertex 0.59755 0.05017 0.0
  endloop
endfacet
facet normal 0.0037700000000000025 0.04854000000000003 -0.0
  outer loop
    vertex 0.59755 0.05017 0.0
    vertex 0.54901 0.05394 0.0
    vertex 0.59755 0.05017 1.0
  endloop
endfacet
facet normal -0.0037700000000000025 -0.04854000000000003 0.0
  outer loop
    vertex 0.59755 0.05017 1.0
    vertex 0.54901 0.05394 1.0
    vertex 0.54901 0.05394 0.0
  endloop
endfacet
facet normal 0.002939999999999998 0.04901 -0.0
  outer loop
    vertex 0.54901 0.05394 0.0
    vertex 0.5 0.05688 0.0
    vertex 0.54901 0.05394 1.0
  endloop
endfacet
facet normal -0.002939999999999998 -0.04901 0.0
  outer loop
    vertex 0.54901 0.05394 1.0
    vertex 0.5 0.05688 1.0
    vertex 0.5 0.05688 0.0
  endloop
endfacet
facet normal 0.00204 0.04901 -0.0
  outer loop
    vertex 0.5 0.05688 0.0
    vertex 0.45099 0.05892 0.0
    vertex 0.5 0.05688 1.0
  endloop
endfacet
facet normal -0.00204 -0.04901 0.0
  outer loop
    vertex 0.5 0.05688 1.0
    vertex 0.45099 0.05892 1.0
    vertex 0.45099 0.05892 0.0
  endloop
endfacet
facet normal 0.0012500000000000011 0.04854000000000003 -0.0
  outer loop
    vertex 0.45099 0.05892 0.0
    vertex 0.40245 0.06017 0.0
    vertex 0.45099 0.05892 1.0
  endloop
endfacet
facet normal -0.0012500000000000011 -0.04854000000000003 0.0
  outer loop
    vertex 0.45099 0.05892 1.0
    vertex 0.40245 0.06017 1.0
    vertex 0.40245 0.06017 0.0
  endloop
endfacet
facet normal 0.00043999999999999595 0.047589999999999966 -0.0
  outer loop
    vertex 0.40245 0.06017 0.0
    vertex 0.35486 0.06061 0.0
    vertex 0.40245 0.06017 1.0
  endloop
endfacet
facet normal -0.00043999999999999595 -0.047589999999999966 0.0
  outer loop
    vertex 0.40245 0.06017 1.0
    vertex 0.35486 0.06061 1.0
    vertex 0.35486 0.06061 0.0
  endloop
endfacet
facet normal -0.0003999999999999976 0.04620000000000002 0.0
  outer loop
    vertex 0.35486 0.06061 0.0
    vertex 0.30866 0.06021 0.0
    vertex 0.35486 0.06061 1.0
  endloop
endfacet
facet normal 0.0003999999999999976 -0.04620000000000002 0.0
  outer loop
    vertex 0.35486 0.06061 1.0
    vertex 0.30866 0.06021 1.0
    vertex 0.30866 0.06021 0.0
  endloop
endfacet
facet normal -0.0011699999999999974 0.04436000000000001 0.0
  outer loop
    vertex 0.30866 0.06021 0.0
    vertex 0.2643 0.05904 0.0
    vertex 0.30866 0.06021 1.0
  endloop
endfacet
facet normal 0.0011699999999999974 -0.04436000000000001 0.0
  outer loop
    vertex 0.30866 0.06021 1.0
    vertex 0.2643 0.05904 1.0
    vertex 0.2643 0.05904 0.0
  endloop
endfacet
facet normal -0.0018500000000000044 0.04208999999999999 0.0
  outer loop
    vertex 0.2643 0.05904 0.0
    vertex 0.22221 0.05719 0.0
    vertex 0.2643 0.05904 1.0
  endloop
endfacet
facet normal 0.0018500000000000044 -0.04208999999999999 0.0
  outer loop
    vertex 0.2643 0.05904 1.0
    vertex 0.22221 0.05719 1.0
    vertex 0.22221 0.05719 0.0
  endloop
endfacet
facet normal -0.0024299999999999947 0.03941 0.0
  outer loop
    vertex 0.22221 0.05719 0.0
    vertex 0.1828 0.05476 0.0
    vertex 0.22221 0.05719 1.0
  endloop
endfacet
facet normal 0.0024299999999999947 -0.03941 0.0
  outer loop
    vertex 0.22221 0.05719 1.0
    vertex 0.1828 0.05476 1.0
    vertex 0.1828 0.05476 0.0
  endloop
endfacet
facet normal -0.0030600000000000002 0.03634999999999999 0.0
  outer loop
    vertex 0.1828 0.05476 0.0
    vertex 0.14645 0.0517 0.0
    vertex 0.1828 0.05476 1.0
  endloop
endfacet
facet normal 0.0030600000000000002 -0.03634999999999999 0.0
  outer loop
    vertex 0.1828 0.05476 1.0
    vertex 0.14645 0.0517 1.0
    vertex 0.14645 0.0517 0.0
  endloop
endfacet
facet normal -0.0034199999999999994 0.03296 0.0
  outer loop
    vertex 0.14645 0.0517 0.0
    vertex 0.11349 0.04828 0.0
    vertex 0.14645 0.0517 1.0
  endloop
endfacet
facet normal 0.0034199999999999994 -0.03296 0.0
  outer loop
    vertex 0.14645 0.0517 1.0
    vertex 0.11349 0.04828 1.0
    vertex 0.11349 0.04828 0.0
  endloop
endfacet
facet normal -0.003840000000000003 0.029219999999999996 0.0
  outer loop
    vertex 0.11349 0.04828 0.0
    vertex 0.08427 0.04444 0.0
    vertex 0.11349 0.04828 1.0
  endloop
endfacet
facet normal 0.003840000000000003 -0.029219999999999996 0.0
  outer loop
    vertex 0.11349 0.04828 1.0
    vertex 0.08427 0.04444 1.0
    vertex 0.08427 0.04444 0.0
  endloop
endfacet
facet normal -0.004150000000000001 0.025229999999999995 0.0
  outer loop
    vertex 0.08427 0.04444 0.0
    vertex 0.05904 0.04029 0.0
    vertex 0.08427 0.04444 1.0
  endloop
endfacet
facet normal 0.004150000000000001 -0.025229999999999995 0.0
  outer loop
    vertex 0.08427 0.04444 1.0
    vertex 0.05904 0.04029 1.0
    vertex 0.05904 0.04029 0.0
  endloop
endfacet
facet normal -0.005330000000000001 0.020980000000000006 0.0
  outer loop
    vertex 0.05904 0.04029 0.0
    vertex 0.03806 0.03496 0.0
    vertex 0.05904 0.04029 1.0
  endloop
endfacet
facet normal 0.005330000000000001 -0.020980000000000006 0.0
  outer loop
    vertex 0.05904 0.04029 1.0
    vertex 0.03806 0.03496 1.0
    vertex 0.03806 0.03496 0.0
  endloop
endfacet
facet normal -0.002799999999999997 0.008059999999999998 0.0
  outer loop
    vertex 0.03806 0.03496 0.0
    vertex 0.03 0.03216 0.0
    vertex 0.03806 0.03496 1.0
  endloop
endfacet
facet normal 0.002799999999999997 -0.008059999999999998 0.0
  outer loop
    vertex 0.03806 0.03496 1.0
    vertex 0.03 0.03216 1.0
    vertex 0.03 0.03216 0.0
  endloop
endfacet
facet normal -0.00375 0.008469999999999998 0.0
  outer loop
    vertex 0.03 0.03216 0.0
    vertex 0.02153 0.02841 0.0
    vertex 0.03 0.03216 1.0
  endloop
endfacet
facet normal 0.00375 -0.008469999999999998 0.0
  outer loop
    vertex 0.03 0.03216 1.0
    vertex 0.02153 0.02841 1.0
    vertex 0.02153 0.02841 0.0
  endloop
endfacet
facet normal -0.003610000000000002 0.006530000000000001 0.0
  outer loop
    vertex 0.02153 0.02841 0.0
    vertex 0.015 0.0248 0.0
    vertex 0.02153 0.02841 1.0
  endloop
endfacet
facet normal 0.003610000000000002 -0.006530000000000001 0.0
  outer loop
    vertex 0.02153 0.02841 1.0
    vertex 0.015 0.0248 1.0
    vertex 0.015 0.0248 0.0
  endloop
endfacet
facet normal -0.0039000000000000007 0.005389999999999999 0.0
  outer loop
    vertex 0.015 0.0248 0.0
    vertex 0.00961 0.0209 0.0
    vertex 0.015 0.0248 1.0
  endloop
endfacet
facet normal 0.0039000000000000007 -0.005389999999999999 0.0
  outer loop
    vertex 0.015 0.0248 1.0
    vertex 0.00961 0.0209 1.0
    vertex 0.00961 0.0209 0.0
  endloop
endfacet
facet normal -0.0014999999999999979 0.0016100000000000003 0.0
  outer loop
    vertex 0.00961 0.0209 0.0
    vertex 0.008 0.0194 0.0
    vertex 0.00961 0.0209 1.0
  endloop
endfacet
facet normal 0.0014999999999999979 -0.0016100000000000003 0.0
  outer loop
    vertex 0.00961 0.0209 1.0
    vertex 0.008 0.0194 1.0
    vertex 0.008 0.0194 0.0
  endloop
endfacet
facet normal -0.00162 0.0015000000000000005 0.0
  outer loop
    vertex 0.008 0.0194 0.0
    vertex 0.0065 0.01778 0.0
    vertex 0.008 0.0194 1.0
  endloop
endfacet
facet normal 0.00162 -0.0015000000000000005 0.0
  outer loop
    vertex 0.008 0.0194 1.0
    vertex 0.0065 0.01778 1.0
    vertex 0.0065 0.01778 0.0
  endloop
endfacet
facet normal -0.001979999999999999 0.0014999999999999996 0.0
  outer loop
    vertex 0.0065 0.01778 0.0
    vertex 0.005 0.0158 0.0
    vertex 0.0065 0.01778 1.0
  endloop
endfacet
facet normal 0.001979999999999999 -0.0014999999999999996 0.0
  outer loop
    vertex 0.0065 0.01778 1.0
    vertex 0.005 0.0158 1.0
    vertex 0.005 0.0158 0.0
  endloop
endfacet
facet normal -0.0023700000000000023 0.0015 0.0
  outer loop
    vertex 0.005 0.0158 0.0
    vertex 0.0035 0.01343 0.0
    vertex 0.005 0.0158 1.0
  endloop
endfacet
facet normal 0.0023700000000000023 -0.0015 0.0
  outer loop
    vertex 0.005 0.0158 1.0
    vertex 0.0035 0.01343 1.0
    vertex 0.0035 0.01343 0.0
  endloop
endfacet
facet normal -0.002149999999999999 0.0010900000000000003 0.0
  outer loop
    vertex 0.0035 0.01343 0.0
    vertex 0.00241 0.01128 0.0
    vertex 0.0035 0.01343 1.0
  endloop
endfacet
facet normal 0.002149999999999999 -0.0010900000000000003 0.0
  outer loop
    vertex 0.0035 0.01343 1.0
    vertex 0.00241 0.01128 1.0
    vertex 0.00241 0.01128 0.0
  endloop
endfacet
facet normal -0.0020300000000000006 0.0008099999999999997 0.0
  outer loop
    vertex 0.00241 0.01128 0.0
    vertex 0.0016 0.00925 0.0
    vertex 0.00241 0.01128 1.0
  endloop
endfacet
facet normal 0.0020300000000000006 -0.0008099999999999997 0.0
  outer loop
    vertex 0.00241 0.01128 1.0
    vertex 0.0016 0.00925 1.0
    vertex 0.0016 0.00925 0.0
  endloop
endfacet
facet normal -0.0019299999999999994 0.0006000000000000001 0.0
  outer loop
    vertex 0.0016 0.00925 0.0
    vertex 0.001 0.00732 0.0
    vertex 0.0016 0.00925 1.0
  endloop
endfacet
facet normal 0.0019299999999999994 -0.0006000000000000001 0.0
  outer loop
    vertex 0.0016 0.00925 1.0
    vertex 0.001 0.00732 1.0
    vertex 0.001 0.00732 0.0
  endloop
endfacet
facet normal -0.0021000000000000003 0.0005 0.0
  outer loop
    vertex 0.001 0.00732 0.0
    vertex 0.0005 0.00522 0.0
    vertex 0.001 0.00732 1.0
  endloop
endfacet
facet normal 0.0021000000000000003 -0.0005 0.0
  outer loop
    vertex 0.001 0.00732 1.0
    vertex 0.0005 0.00522 1.0
    vertex 0.0005 0.00522 0.0
  endloop
endfacet
facet normal -0.00522 0.0005 0.0
  outer loop
    vertex 0.0005 0.00522 0.0
    vertex 0.0 0.0 0.0
    vertex 0.0005 0.00522 1.0
  endloop
endfacet
facet normal 0.00522 -0.0005 0.0
  outer loop
    vertex 0.0005 0.00522 1.0
    vertex 0.0 0.0 1.0
    vertex 0.0 0.0 0.0
  endloop
endfacet
facet normal -0.0041 -0.0005 0.0
  outer loop
    vertex 0.0 0.0 0.0
    vertex 0.0005 -0.0041 0.0
    vertex 0.0 0.0 1.0
  endloop
endfacet
facet normal 0.0041 0.0005 0.0
  outer loop
    vertex 0.0 0.0 1.0
    vertex 0.0005 -0.0041 1.0
    vertex 0.0005 -0.0041 0.0
  endloop
endfacet
facet normal -0.0013499999999999996 -0.0005 0.0
  outer loop
    vertex 0.0005 -0.0041 0.0
    vertex 0.001 -0.00545 0.0
    vertex 0.0005 -0.0041 1.0
  endloop
endfacet
facet normal 0.0013499999999999996 0.0005 0.0
  outer loop
    vertex 0.0005 -0.0041 1.0
    vertex 0.001 -0.00545 1.0
    vertex 0.001 -0.00545 0.0
  endloop
endfacet
facet normal -0.0011999999999999997 -0.0006000000000000001 0.0
  outer loop
    vertex 0.001 -0.00545 0.0
    vertex 0.0016 -0.00665 0.0
    vertex 0.001 -0.00545 1.0
  endloop
endfacet
facet normal 0.0011999999999999997 0.0006000000000000001 0.0
  outer loop
    vertex 0.001 -0.00545 1.0
    vertex 0.0016 -0.00665 1.0
    vertex 0.0016 -0.00665 0.0
  endloop
endfacet
facet normal -0.0011999999999999997 -0.0008099999999999997 0.0
  outer loop
    vertex 0.0016 -0.00665 0.0
    vertex 0.00241 -0.00785 0.0
    vertex 0.0016 -0.00665 1.0
  endloop
endfacet
facet normal 0.0011999999999999997 0.0008099999999999997 0.0
  outer loop
    vertex 0.0016 -0.00665 1.0
    vertex 0.00241 -0.00785 1.0
    vertex 0.00241 -0.00785 0.0
  endloop
endfacet
facet normal -0.00115 -0.0010900000000000003 0.0
  outer loop
    vertex 0.00241 -0.00785 0.0
    vertex 0.0035 -0.009 0.0
    vertex 0.00241 -0.00785 1.0
  endloop
endfacet
facet normal 0.00115 0.0010900000000000003 0.0
  outer loop
    vertex 0.00241 -0.00785 1.0
    vertex 0.0035 -0.009 1.0
    vertex 0.0035 -0.009 0.0
  endloop
endfacet
facet normal -0.0013000000000000008 -0.0015 0.0
  outer loop
    vertex 0.0035 -0.009 0.0
    vertex 0.005 -0.0103 0.0
    vertex 0.0035 -0.009 1.0
  endloop
endfacet
facet normal 0.0013000000000000008 0.0015 0.0
  outer loop
    vertex 0.0035 -0.009 1.0
    vertex 0.005 -0.0103 1.0
    vertex 0.005 -0.0103 0.0
  endloop
endfacet
facet normal -0.0010900000000000007 -0.0014999999999999996 0.0
  outer loop
    vertex 0.005 -0.0103 0.0
    vertex 0.0065 -0.01139 0.0
    vertex 0.005 -0.0103 1.0
  endloop
endfacet
facet normal 0.0010900000000000007 0.0014999999999999996 0.0
  outer loop
    vertex 0.005 -0.0103 1.0
    vertex 0.0065 -0.01139 1.0
    vertex 0.0065 -0.01139 0.0
  endloop
endfacet
facet normal -0.0008899999999999984 -0.0015000000000000005 0.0
  outer loop
    vertex 0.0065 -0.01139 0.0
    vertex 0.008 -0.01228 0.0
    vertex 0.0065 -0.01139 1.0
  endloop
endfacet
facet normal 0.0008899999999999984 0.0015000000000000005 0.0
  outer loop
    vertex 0.0065 -0.01139 1.0
    vertex 0.008 -0.01228 1.0
    vertex 0.008 -0.01228 0.0
  endloop
endfacet
facet normal -0.0008800000000000006 -0.0016100000000000003 0.0
  outer loop
    vertex 0.008 -0.01228 0.0
    vertex 0.00961 -0.01316 0.0
    vertex 0.008 -0.01228 1.0
  endloop
endfacet
facet normal 0.0008800000000000006 0.0016100000000000003 0.0
  outer loop
    vertex 0.008 -0.01228 1.0
    vertex 0.00961 -0.01316 1.0
    vertex 0.00961 -0.01316 0.0
  endloop
endfacet
facet normal -0.00217 -0.005389999999999999 0.0
  outer loop
    vertex 0.00961 -0.01316 0.0
    vertex 0.015 -0.01533 0.0
    vertex 0.00961 -0.01316 1.0
  endloop
endfacet
facet normal 0.00217 0.005389999999999999 0.0
  outer loop
    vertex 0.00961 -0.01316 1.0
    vertex 0.015 -0.01533 1.0
    vertex 0.015 -0.01533 0.0
  endloop
endfacet
facet normal -0.0019400000000000008 -0.006530000000000001 0.0
  outer loop
    vertex 0.015 -0.01533 0.0
    vertex 0.02153 -0.01727 0.0
    vertex 0.015 -0.01533 1.0
  endloop
endfacet
facet normal 0.0019400000000000008 0.006530000000000001 0.0
  outer loop
    vertex 0.015 -0.01533 1.0
    vertex 0.02153 -0.01727 1.0
    vertex 0.02153 -0.01727 0.0
  endloop
endfacet
facet normal -0.0022000000000000006 -0.008469999999999998 0.0
  outer loop
    vertex 0.02153 -0.01727 0.0
    vertex 0.03 -0.01947 0.0
    vertex 0.02153 -0.01727 1.0
  endloop
endfacet
facet normal 0.0022000000000000006 0.008469999999999998 0.0
  outer loop
    vertex 0.02153 -0.01727 1.0
    vertex 0.03 -0.01947 1.0
    vertex 0.03 -0.01947 0.0
  endloop
endfacet
facet normal -0.0017099999999999997 -0.008059999999999998 0.0
  outer loop
    vertex 0.03 -0.01947 0.0
    vertex 0.03806 -0.02118 0.0
    vertex 0.03 -0.01947 1.0
  endloop
endfacet
facet normal 0.0017099999999999997 0.008059999999999998 0.0
  outer loop
    vertex 0.03 -0.01947 1.0
    vertex 0.03806 -0.02118 1.0
    vertex 0.03806 -0.02118 0.0
  endloop
endfacet
facet normal -0.00341 -0.020980000000000006 0.0
  outer loop
    vertex 0.03806 -0.02118 0.0
    vertex 0.05904 -0.02459 0.0
    vertex 0.03806 -0.02118 1.0
  endloop
endfacet
facet normal 0.00341 0.020980000000000006 0.0
  outer loop
    vertex 0.03806 -0.02118 1.0
    vertex 0.05904 -0.02459 1.0
    vertex 0.05904 -0.02459 0.0
  endloop
endfacet
facet normal -0.0032699999999999986 -0.025229999999999995 0.0
  outer loop
    vertex 0.05904 -0.02459 0.0
    vertex 0.08427 -0.02786 0.0
    vertex 0.05904 -0.02459 1.0
  endloop
endfacet
facet normal 0.0032699999999999986 0.025229999999999995 0.0
  outer loop
    vertex 0.05904 -0.02459 1.0
    vertex 0.08427 -0.02786 1.0
    vertex 0.08427 -0.02786 0.0
  endloop
endfacet
facet normal -0.0028800000000000006 -0.029219999999999996 0.0
  outer loop
    vertex 0.08427 -0.02786 0.0
    vertex 0.11349 -0.03074 0.0
    vertex 0.08427 -0.02786 1.0
  endloop
endfacet
facet normal 0.0028800000000000006 0.029219999999999996 0.0
  outer loop
    vertex 0.08427 -0.02786 1.0
    vertex 0.11349 -0.03074 1.0
    vertex 0.11349 -0.03074 0.0
  endloop
endfacet
facet normal -0.0025800000000000024 -0.03296 0.0
  outer loop
    vertex 0.11349 -0.03074 0.0
    vertex 0.14645 -0.03332 0.0
    vertex 0.11349 -0.03074 1.0
  endloop
endfacet
facet normal 0.0025800000000000024 0.03296 0.0
  outer loop
    vertex 0.11349 -0.03074 1.0
    vertex 0.14645 -0.03332 1.0
    vertex 0.14645 -0.03332 0.0
  endloop
endfacet
facet normal -0.002239999999999999 -0.03634999999999999 0.0
  outer loop
    vertex 0.14645 -0.03332 0.0
    vertex 0.1828 -0.03556 0.0
    vertex 0.14645 -0.03332 1.0
  endloop
endfacet
facet normal 0.002239999999999999 0.03634999999999999 0.0
  outer loop
    vertex 0.14645 -0.03332 1.0
    vertex 0.1828 -0.03556 1.0
    vertex 0.1828 -0.03556 0.0
  endloop
endfacet
facet normal -0.0017500000000000016 -0.03941 0.0
  outer loop
    vertex 0.1828 -0.03556 0.0
    vertex 0.22221 -0.03731 0.0
    vertex 0.1828 -0.03556 1.0
  endloop
endfacet
facet normal 0.0017500000000000016 0.03941 0.0
  outer loop
    vertex 0.1828 -0.03556 1.0
    vertex 0.22221 -0.03731 1.0
    vertex 0.22221 -0.03731 0.0
  endloop
endfacet
facet normal -0.0012499999999999942 -0.04208999999999999 0.0
  outer loop
    vertex 0.22221 -0.03731 0.0
    vertex 0.2643 -0.03856 0.0
    vertex 0.22221 -0.03731 1.0
  endloop
endfacet
facet normal 0.0012499999999999942 0.04208999999999999 0.0
  outer loop
    vertex 0.22221 -0.03731 1.0
    vertex 0.2643 -0.03856 1.0
    vertex 0.2643 -0.03856 0.0
  endloop
endfacet
facet normal -0.0005900000000000002 -0.04436000000000001 0.0
  outer loop
    vertex 0.2643 -0.03856 0.0
    vertex 0.30866 -0.03915 0.0
    vertex 0.2643 -0.03856 1.0
  endloop
endfacet
facet normal 0.0005900000000000002 0.04436000000000001 0.0
  outer loop
    vertex 0.2643 -0.03856 1.0
    vertex 0.30866 -0.03915 1.0
    vertex 0.30866 -0.03915 0.0
  endloop
endfacet
facet normal 0.00025999999999999635 -0.04620000000000002 0.0
  outer loop
    vertex 0.30866 -0.03915 0.0
    vertex 0.35486 -0.03889 0.0
    vertex 0.30866 -0.03915 1.0
  endloop
endfacet
facet normal -0.00025999999999999635 0.04620000000000002 0.0
  outer loop
    vertex 0.30866 -0.03915 1.0
    vertex 0.35486 -0.03889 1.0
    vertex 0.35486 -0.03889 0.0
  endloop
endfacet
facet normal 0.0011600000000000013 -0.047589999999999966 0.0
  outer loop
    vertex 0.35486 -0.03889 0.0
    vertex 0.40245 -0.03773 0.0
    vertex 0.35486 -0.03889 1.0
  endloop
endfacet
facet normal -0.0011600000000000013 0.047589999999999966 0.0
  outer loop
    vertex 0.35486 -0.03889 1.0
    vertex 0.40245 -0.03773 1.0
    vertex 0.40245 -0.03773 0.0
  endloop
endfacet
facet normal 0.00213 -0.04854000000000003 0.0
  outer loop
    vertex 0.40245 -0.03773 0.0
    vertex 0.45099 -0.0356 0.0
    vertex 0.40245 -0.03773 1.0
  endloop
endfacet
facet normal -0.00213 0.04854000000000003 0.0
  outer loop
    vertex 0.40245 -0.03773 1.0
    vertex 0.45099 -0.0356 1.0
    vertex 0.45099 -0.0356 0.0
  endloop
endfacet
facet normal 0.003279999999999998 -0.04901 0.0
  outer loop
    vertex 0.45099 -0.0356 0.0
    vertex 0.5 -0.03232 0.0
    vertex 0.45099 -0.0356 1.0
  endloop
endfacet
facet normal -0.003279999999999998 0.04901 0.0
  outer loop
    vertex 0.45099 -0.0356 1.0
    vertex 0.5 -0.03232 1.0
    vertex 0.5 -0.03232 0.0
  endloop
endfacet
facet normal 0.004440000000000003 -0.04901 0.0
  outer loop
    vertex 0.5 -0.03232 0.0
    vertex 0.54901 -0.02788 0.0
    vertex 0.5 -0.03232 1.0
  endloop
endfacet
facet normal -0.004440000000000003 0.04901 0.0
  outer loop
    vertex 0.5 -0.03232 1.0
    vertex 0.54901 -0.02788 1.0
    vertex 0.54901 -0.02788 0.0
  endloop
endfacet
facet normal 0.005209999999999999 -0.04854000000000003 0.0
  outer loop
    vertex 0.54901 -0.02788 0.0
    vertex 0.59755 -0.02267 0.0
    vertex 0.54901 -0.02788 1.0
  endloop
endfacet
facet normal -0.005209999999999999 0.04854000000000003 0.0
  outer loop
    vertex 0.54901 -0.02788 1.0
    vertex 0.59755 -0.02267 1.0
    vertex 0.59755 -0.02267 0.0
  endloop
endfacet
facet normal 0.0055099999999999975 -0.04759000000000002 0.0
  outer loop
    vertex 0.59755 -0.02267 0.0
    vertex 0.64514 -0.01716 0.0
    vertex 0.59755 -0.02267 1.0
  endloop
endfacet
facet normal -0.0055099999999999975 0.04759000000000002 0.0
  outer loop
    vertex 0.59755 -0.02267 1.0
    vertex 0.64514 -0.01716 1.0
    vertex 0.64514 -0.01716 0.0
  endloop
endfacet
facet normal 0.005170000000000001 -0.04619999999999991 0.0
  outer loop
    vertex 0.64514 -0.01716 0.0
    vertex 0.69134 -0.01199 0.0
    vertex 0.64514 -0.01716 1.0
  endloop
endfacet
facet normal -0.005170000000000001 0.04619999999999991 0.0
  outer loop
    vertex 0.64514 -0.01716 1.0
    vertex 0.69134 -0.01199 1.0
    vertex 0.69134 -0.01199 0.0
  endloop
endfacet
facet normal 0.0043100000000000005 -0.044360000000000066 0.0
  outer loop
    vertex 0.69134 -0.01199 0.0
    vertex 0.7357 -0.00768 0.0
    vertex 0.69134 -0.01199 1.0
  endloop
endfacet
facet normal -0.0043100000000000005 0.044360000000000066 0.0
  outer loop
    vertex 0.69134 -0.01199 1.0
    vertex 0.7357 -0.00768 1.0
    vertex 0.7357 -0.00768 0.0
  endloop
endfacet
facet normal 0.0034400000000000003 -0.04208999999999996 0.0
  outer loop
    vertex 0.7357 -0.00768 0.0
    vertex 0.77779 -0.00424 0.0
    vertex 0.7357 -0.00768 1.0
  endloop
endfacet
facet normal -0.0034400000000000003 0.04208999999999996 0.0
  outer loop
    vertex 0.7357 -0.00768 1.0
    vertex 0.77779 -0.00424 1.0
    vertex 0.77779 -0.00424 0.0
  endloop
endfacet
facet normal 0.00249 -0.039410000000000056 0.0
  outer loop
    vertex 0.77779 -0.00424 0.0
    vertex 0.8172 -0.00175 0.0
    vertex 0.77779 -0.00424 1.0
  endloop
endfacet
facet normal -0.00249 0.039410000000000056 0.0
  outer loop
    vertex 0.77779 -0.00424 1.0
    vertex 0.8172 -0.00175 1.0
    vertex 0.8172 -0.00175 0.0
  endloop
endfacet
facet normal 0.00165 -0.03634999999999999 0.0
  outer loop
    vertex 0.8172 -0.00175 0.0
    vertex 0.85355 -0.0001 0.0
    vertex 0.8172 -0.00175 1.0
  endloop
endfacet
facet normal -0.00165 0.03634999999999999 0.0
  outer loop
    vertex 0.8172 -0.00175 1.0
    vertex 0.85355 -0.0001 1.0
    vertex 0.85355 -0.0001 0.0
  endloop
endfacet
facet normal 0.00095 -0.03295999999999999 0.0
  outer loop
    vertex 0.85355 -0.0001 0.0
    vertex 0.88651 0.00085 0.0
    vertex 0.85355 -0.0001 1.0
  endloop
endfacet
facet normal -0.00095 0.03295999999999999 0.0
  outer loop
    vertex 0.85355 -0.0001 1.0
    vertex 0.88651 0.00085 1.0
    vertex 0.88651 0.00085 0.0
  endloop
endfacet
facet normal 0.00045 -0.029220000000000024 0.0
  outer loop
    vertex 0.88651 0.00085 0.0
    vertex 0.91573 0.0013 0.0
    vertex 0.88651 0.00085 1.0
  endloop
endfacet
facet normal -0.00045 0.029220000000000024 0.0
  outer loop
    vertex 0.88651 0.00085 1.0
    vertex 0.91573 0.0013 1.0
    vertex 0.91573 0.0013 0.0
  endloop
endfacet
facet normal -3.999999999999989e-05 -0.025229999999999975 0.0
  outer loop
    vertex 0.91573 0.0013 0.0
    vertex 0.94096 0.00126 0.0
    vertex 0.91573 0.0013 1.0
  endloop
endfacet
facet normal 3.999999999999989e-05 0.025229999999999975 0.0
  outer loop
    vertex 0.91573 0.0013 1.0
    vertex 0.94096 0.00126 1.0
    vertex 0.94096 0.00126 0.0
  endloop
endfacet
facet normal -0.0002800000000000001 -0.02098 0.0
  outer loop
    vertex 0.94096 0.00126 0.0
    vertex 0.96194 0.00098 0.0
    vertex 0.94096 0.00126 1.0
  endloop
endfacet
facet normal 0.0002800000000000001 0.02098 0.0
  outer loop
    vertex 0.94096 0.00126 1.0
    vertex 0.96194 0.00098 1.0
    vertex 0.96194 0.00098 0.0
  endloop
endfacet
facet normal -0.00035999999999999997 -0.016529999999999934 0.0
  outer loop
    vertex 0.96194 0.00098 0.0
    vertex 0.97847 0.00062 0.0
    vertex 0.96194 0.00098 1.0
  endloop
endfacet
facet normal 0.00035999999999999997 0.016529999999999934 0.0
  outer loop
    vertex 0.96194 0.00098 1.0
    vertex 0.97847 0.00062 1.0
    vertex 0.97847 0.00062 0.0
  endloop
endfacet
facet normal -0.00033 -0.011920000000000042 0.0
  outer loop
    vertex 0.97847 0.00062 0.0
    vertex 0.99039 0.00029 0.0
    vertex 0.97847 0.00062 1.0
  endloop
endfacet
facet normal 0.00033 0.011920000000000042 0.0
  outer loop
    vertex 0.97847 0.00062 1.0
    vertex 0.99039 0.00029 1.0
    vertex 0.99039 0.00029 0.0
  endloop
endfacet
facet normal -0.00023 -0.007199999999999984 0.0
  outer loop
    vertex 0.99039 0.00029 0.0
    vertex 0.99759 6e-05 0.0
    vertex 0.99039 0.00029 1.0
  endloop
endfacet
facet normal 0.00023 0.007199999999999984 0.0
  outer loop
    vertex 0.99039 0.00029 1.0
    vertex 0.99759 6e-05 1.0
    vertex 0.99759 6e-05 0.0
  endloop
endfacet
facet normal -6e-05 -0.0024100000000000232 0.0
  outer loop
    vertex 0.99759 6e-05 0.0
    vertex 1.0 0.0 0.0
    vertex 0.99759 6e-05 1.0
  endloop
endfacet
facet normal 6e-05 0.0024100000000000232 0.0
  outer loop
    vertex 0.99759 6e-05 1.0
    vertex 1.0 0.0 1.0
    vertex 1.0 0.0 0.0
  endloop
endfacet
endsolid airfoil